<mxfile host="app.diagrams.net" modified="2023-08-31T15:10:15.794Z" agent="Mozilla/5.0 (Windows NT 10.0; Win64; x64) AppleWebKit/537.36 (KHTML, like Gecko) Chrome/116.0.0.0 Safari/537.36" etag="ibE2fuR3yGW4ub2jpb05" version="21.7.1" type="github">
  <diagram name="Página-1" id="mpdH6doztN7DgkLEiqyZ">
    <mxGraphModel dx="1886" dy="792" grid="1" gridSize="10" guides="1" tooltips="1" connect="1" arrows="1" fold="1" page="1" pageScale="1" pageWidth="2150" pageHeight="1019" math="0" shadow="0">
      <root>
        <mxCell id="0" />
        <mxCell id="1" parent="0" />
        <mxCell id="F8KtdpI1GHPBsjBE2DjE-1" value="&lt;font style=&quot;vertical-align: inherit;&quot;&gt;&lt;font style=&quot;vertical-align: inherit;&quot;&gt;Rips con prestación de servicio posterior al fallecimiento o retiro del afiliado&lt;/font&gt;&lt;/font&gt;" style="swimlane;childLayout=stackLayout;resizeParent=1;resizeParentMax=0;horizontal=1;startSize=20;horizontalStack=0;html=1;" parent="1" vertex="1">
          <mxGeometry x="35" y="10" width="2085" height="980" as="geometry" />
        </mxCell>
        <mxCell id="I0qWXPTTr72CTAHtNLoR-31" value="Si" style="edgeStyle=orthogonalEdgeStyle;rounded=0;orthogonalLoop=1;jettySize=auto;html=1;entryX=0;entryY=0.5;entryDx=0;entryDy=0;entryPerimeter=0;" edge="1" parent="F8KtdpI1GHPBsjBE2DjE-1" source="I0qWXPTTr72CTAHtNLoR-29" target="I0qWXPTTr72CTAHtNLoR-32">
          <mxGeometry relative="1" as="geometry">
            <mxPoint x="780" y="740" as="targetPoint" />
            <Array as="points">
              <mxPoint x="780" y="790" />
            </Array>
          </mxGeometry>
        </mxCell>
        <mxCell id="F8KtdpI1GHPBsjBE2DjE-2" value="&lt;font style=&quot;vertical-align: inherit;&quot;&gt;&lt;font style=&quot;vertical-align: inherit;&quot;&gt;Cargue de factura&lt;/font&gt;&lt;/font&gt;" style="swimlane;startSize=20;horizontal=0;html=1;" parent="F8KtdpI1GHPBsjBE2DjE-1" vertex="1">
          <mxGeometry y="20" width="2085" height="320" as="geometry" />
        </mxCell>
        <mxCell id="F8KtdpI1GHPBsjBE2DjE-4" value="" style="points=[[0.145,0.145,0],[0.5,0,0],[0.855,0.145,0],[1,0.5,0],[0.855,0.855,0],[0.5,1,0],[0.145,0.855,0],[0,0.5,0]];shape=mxgraph.bpmn.event;html=1;verticalLabelPosition=bottom;labelBackgroundColor=#ffffff;verticalAlign=top;align=center;perimeter=ellipsePerimeter;outlineConnect=0;aspect=fixed;outline=standard;symbol=general;fillColor=#f8cecc;strokeColor=#b85450;" parent="F8KtdpI1GHPBsjBE2DjE-2" vertex="1">
          <mxGeometry x="40" y="80" width="40" height="40" as="geometry" />
        </mxCell>
        <mxCell id="F8KtdpI1GHPBsjBE2DjE-5" value="Realizar cargue de archivos rips" style="points=[[0.25,0,0],[0.5,0,0],[0.75,0,0],[1,0.25,0],[1,0.5,0],[1,0.75,0],[0.75,1,0],[0.5,1,0],[0.25,1,0],[0,0.75,0],[0,0.5,0],[0,0.25,0]];shape=mxgraph.bpmn.task;whiteSpace=wrap;rectStyle=rounded;size=10;html=1;container=1;expand=0;collapsible=0;taskMarker=manual;fillColor=#fff2cc;strokeColor=#d6b656;" parent="F8KtdpI1GHPBsjBE2DjE-2" vertex="1">
          <mxGeometry x="270" y="60" width="140" height="80" as="geometry" />
        </mxCell>
        <mxCell id="F8KtdpI1GHPBsjBE2DjE-6" style="edgeStyle=orthogonalEdgeStyle;rounded=0;orthogonalLoop=1;jettySize=auto;html=1;" parent="F8KtdpI1GHPBsjBE2DjE-2" source="F8KtdpI1GHPBsjBE2DjE-7" target="F8KtdpI1GHPBsjBE2DjE-5" edge="1">
          <mxGeometry relative="1" as="geometry">
            <mxPoint x="270" y="100" as="targetPoint" />
          </mxGeometry>
        </mxCell>
        <mxCell id="F8KtdpI1GHPBsjBE2DjE-7" value="Ingresar a OASIS módulo erip" style="points=[[0.25,0,0],[0.5,0,0],[0.75,0,0],[1,0.25,0],[1,0.5,0],[1,0.75,0],[0.75,1,0],[0.5,1,0],[0.25,1,0],[0,0.75,0],[0,0.5,0],[0,0.25,0]];shape=mxgraph.bpmn.task;whiteSpace=wrap;rectStyle=rounded;size=10;html=1;container=1;expand=0;collapsible=0;taskMarker=user;fillColor=#fff2cc;strokeColor=#d6b656;" parent="F8KtdpI1GHPBsjBE2DjE-2" vertex="1">
          <mxGeometry x="110" y="60" width="120" height="80" as="geometry" />
        </mxCell>
        <mxCell id="F8KtdpI1GHPBsjBE2DjE-8" style="edgeStyle=orthogonalEdgeStyle;rounded=0;orthogonalLoop=1;jettySize=auto;html=1;entryX=0;entryY=0.5;entryDx=0;entryDy=0;entryPerimeter=0;" parent="F8KtdpI1GHPBsjBE2DjE-2" source="F8KtdpI1GHPBsjBE2DjE-4" target="F8KtdpI1GHPBsjBE2DjE-7" edge="1">
          <mxGeometry relative="1" as="geometry">
            <mxPoint x="110" y="100" as="targetPoint" />
          </mxGeometry>
        </mxCell>
        <mxCell id="F8KtdpI1GHPBsjBE2DjE-9" style="edgeStyle=orthogonalEdgeStyle;rounded=0;orthogonalLoop=1;jettySize=auto;html=1;entryX=0;entryY=0.5;entryDx=0;entryDy=0;entryPerimeter=0;" parent="F8KtdpI1GHPBsjBE2DjE-2" source="F8KtdpI1GHPBsjBE2DjE-5" target="F8KtdpI1GHPBsjBE2DjE-13" edge="1">
          <mxGeometry relative="1" as="geometry">
            <mxPoint x="460" y="100" as="targetPoint" />
          </mxGeometry>
        </mxCell>
        <mxCell id="F8KtdpI1GHPBsjBE2DjE-12" style="edgeStyle=orthogonalEdgeStyle;rounded=0;orthogonalLoop=1;jettySize=auto;html=1;entryX=0;entryY=0.5;entryDx=0;entryDy=0;entryPerimeter=0;" parent="F8KtdpI1GHPBsjBE2DjE-2" source="F8KtdpI1GHPBsjBE2DjE-13" target="F8KtdpI1GHPBsjBE2DjE-24" edge="1">
          <mxGeometry relative="1" as="geometry">
            <mxPoint x="560" y="100" as="targetPoint" />
          </mxGeometry>
        </mxCell>
        <mxCell id="F8KtdpI1GHPBsjBE2DjE-13" value="Clic botón validar" style="points=[[0.145,0.145,0],[0.5,0,0],[0.855,0.145,0],[1,0.5,0],[0.855,0.855,0],[0.5,1,0],[0.145,0.855,0],[0,0.5,0]];shape=mxgraph.bpmn.event;html=1;verticalLabelPosition=bottom;labelBackgroundColor=#ffffff;verticalAlign=top;align=center;perimeter=ellipsePerimeter;outlineConnect=0;aspect=fixed;outline=throwing;symbol=general;fillColor=#d5e8d4;strokeColor=#82b366;" parent="F8KtdpI1GHPBsjBE2DjE-2" vertex="1">
          <mxGeometry x="460" y="75" width="50" height="50" as="geometry" />
        </mxCell>
        <mxCell id="F8KtdpI1GHPBsjBE2DjE-23" style="edgeStyle=orthogonalEdgeStyle;rounded=0;orthogonalLoop=1;jettySize=auto;html=1;entryX=0;entryY=0.5;entryDx=0;entryDy=0;entryPerimeter=0;" parent="F8KtdpI1GHPBsjBE2DjE-2" source="F8KtdpI1GHPBsjBE2DjE-24" target="I0qWXPTTr72CTAHtNLoR-29" edge="1">
          <mxGeometry relative="1" as="geometry">
            <mxPoint x="755" y="100" as="targetPoint" />
          </mxGeometry>
        </mxCell>
        <mxCell id="F8KtdpI1GHPBsjBE2DjE-24" value="&lt;font style=&quot;vertical-align: inherit;&quot;&gt;&lt;font style=&quot;vertical-align: inherit;&quot;&gt;Verificar archivos RIPS (AP, AC y MA)&lt;/font&gt;&lt;/font&gt;" style="points=[[0.25,0,0],[0.5,0,0],[0.75,0,0],[1,0.25,0],[1,0.5,0],[1,0.75,0],[0.75,1,0],[0.5,1,0],[0.25,1,0],[0,0.75,0],[0,0.5,0],[0,0.25,0]];shape=mxgraph.bpmn.task;whiteSpace=wrap;rectStyle=rounded;size=10;html=1;container=1;expand=0;collapsible=0;taskMarker=service;fillColor=#fff2cc;strokeColor=#d6b656;" parent="F8KtdpI1GHPBsjBE2DjE-2" vertex="1">
          <mxGeometry x="565" y="60" width="135" height="80" as="geometry" />
        </mxCell>
        <mxCell id="I0qWXPTTr72CTAHtNLoR-29" value="Todos los servicios&lt;br&gt;se prestaron después&lt;br&gt;del fallecimiento o&lt;br&gt;retiro?" style="points=[[0.25,0.25,0],[0.5,0,0],[0.75,0.25,0],[1,0.5,0],[0.75,0.75,0],[0.5,1,0],[0.25,0.75,0],[0,0.5,0]];shape=mxgraph.bpmn.gateway2;html=1;verticalLabelPosition=bottom;labelBackgroundColor=#ffffff;verticalAlign=top;align=center;perimeter=rhombusPerimeter;outlineConnect=0;outline=none;symbol=none;fillColor=#d5e8d4;strokeColor=#82b366;" vertex="1" parent="F8KtdpI1GHPBsjBE2DjE-2">
          <mxGeometry x="755" y="75" width="50" height="50" as="geometry" />
        </mxCell>
        <mxCell id="F8KtdpI1GHPBsjBE2DjE-30" value="&lt;font style=&quot;vertical-align: inherit;&quot;&gt;&lt;font style=&quot;vertical-align: inherit;&quot;&gt;Devolución de factura&lt;/font&gt;&lt;/font&gt;" style="swimlane;startSize=20;horizontal=0;html=1;" parent="F8KtdpI1GHPBsjBE2DjE-1" vertex="1">
          <mxGeometry y="340" width="2085" height="320" as="geometry" />
        </mxCell>
        <mxCell id="F8KtdpI1GHPBsjBE2DjE-31" style="edgeStyle=orthogonalEdgeStyle;rounded=0;orthogonalLoop=1;jettySize=auto;html=1;" parent="F8KtdpI1GHPBsjBE2DjE-30" source="F8KtdpI1GHPBsjBE2DjE-32" target="I0qWXPTTr72CTAHtNLoR-52" edge="1">
          <mxGeometry relative="1" as="geometry">
            <mxPoint x="1335" y="75" as="targetPoint" />
          </mxGeometry>
        </mxCell>
        <mxCell id="F8KtdpI1GHPBsjBE2DjE-32" value="Continuar flujo del proceso de radicación de factura" style="points=[[0.25,0,0],[0.5,0,0],[0.75,0,0],[1,0.25,0],[1,0.5,0],[1,0.75,0],[0.75,1,0],[0.5,1,0],[0.25,1,0],[0,0.75,0],[0,0.5,0],[0,0.25,0]];shape=mxgraph.bpmn.task;whiteSpace=wrap;rectStyle=rounded;size=10;html=1;container=1;expand=0;collapsible=0;taskMarker=service;fillColor=#fff2cc;strokeColor=#d6b656;" parent="F8KtdpI1GHPBsjBE2DjE-30" vertex="1">
          <mxGeometry x="1175" y="35" width="135" height="80" as="geometry" />
        </mxCell>
        <mxCell id="I0qWXPTTr72CTAHtNLoR-48" style="edgeStyle=orthogonalEdgeStyle;rounded=0;orthogonalLoop=1;jettySize=auto;html=1;" edge="1" parent="F8KtdpI1GHPBsjBE2DjE-30" source="I0qWXPTTr72CTAHtNLoR-33" target="I0qWXPTTr72CTAHtNLoR-47">
          <mxGeometry relative="1" as="geometry" />
        </mxCell>
        <mxCell id="I0qWXPTTr72CTAHtNLoR-33" value="Consultar estado del afiliado y fecha de prestación de los servicios" style="points=[[0.25,0,0],[0.5,0,0],[0.75,0,0],[1,0.25,0],[1,0.5,0],[1,0.75,0],[0.75,1,0],[0.5,1,0],[0.25,1,0],[0,0.75,0],[0,0.5,0],[0,0.25,0]];shape=mxgraph.bpmn.task;whiteSpace=wrap;rectStyle=rounded;size=10;html=1;container=1;expand=0;collapsible=0;taskMarker=service;fillColor=#fff2cc;strokeColor=#d6b656;" vertex="1" parent="F8KtdpI1GHPBsjBE2DjE-30">
          <mxGeometry x="885" y="150" width="135" height="80" as="geometry" />
        </mxCell>
        <mxCell id="I0qWXPTTr72CTAHtNLoR-49" value="Si" style="edgeStyle=orthogonalEdgeStyle;rounded=0;orthogonalLoop=1;jettySize=auto;html=1;entryX=0;entryY=0.5;entryDx=0;entryDy=0;entryPerimeter=0;" edge="1" parent="F8KtdpI1GHPBsjBE2DjE-30" source="I0qWXPTTr72CTAHtNLoR-47" target="F8KtdpI1GHPBsjBE2DjE-32">
          <mxGeometry relative="1" as="geometry">
            <Array as="points">
              <mxPoint x="1090" y="75" />
            </Array>
          </mxGeometry>
        </mxCell>
        <mxCell id="I0qWXPTTr72CTAHtNLoR-53" value="No" style="edgeStyle=orthogonalEdgeStyle;rounded=0;orthogonalLoop=1;jettySize=auto;html=1;entryX=0;entryY=0.5;entryDx=0;entryDy=0;entryPerimeter=0;" edge="1" parent="F8KtdpI1GHPBsjBE2DjE-30" source="I0qWXPTTr72CTAHtNLoR-47" target="I0qWXPTTr72CTAHtNLoR-54">
          <mxGeometry relative="1" as="geometry">
            <mxPoint x="1175" y="190" as="targetPoint" />
          </mxGeometry>
        </mxCell>
        <mxCell id="I0qWXPTTr72CTAHtNLoR-47" value="Afiliado activo?" style="points=[[0.25,0.25,0],[0.5,0,0],[0.75,0.25,0],[1,0.5,0],[0.75,0.75,0],[0.5,1,0],[0.25,0.75,0],[0,0.5,0]];shape=mxgraph.bpmn.gateway2;html=1;verticalLabelPosition=bottom;labelBackgroundColor=#ffffff;verticalAlign=top;align=center;perimeter=rhombusPerimeter;outlineConnect=0;outline=none;symbol=none;fillColor=#d5e8d4;strokeColor=#82b366;" vertex="1" parent="F8KtdpI1GHPBsjBE2DjE-30">
          <mxGeometry x="1065" y="165" width="50" height="50" as="geometry" />
        </mxCell>
        <mxCell id="I0qWXPTTr72CTAHtNLoR-52" value="" style="points=[[0.145,0.145,0],[0.5,0,0],[0.855,0.145,0],[1,0.5,0],[0.855,0.855,0],[0.5,1,0],[0.145,0.855,0],[0,0.5,0]];shape=mxgraph.bpmn.event;html=1;verticalLabelPosition=bottom;labelBackgroundColor=#ffffff;verticalAlign=top;align=center;perimeter=ellipsePerimeter;outlineConnect=0;aspect=fixed;outline=end;symbol=terminate2;fillColor=#f8cecc;strokeColor=#b85450;" vertex="1" parent="F8KtdpI1GHPBsjBE2DjE-30">
          <mxGeometry x="1335" y="50" width="50" height="50" as="geometry" />
        </mxCell>
        <mxCell id="I0qWXPTTr72CTAHtNLoR-56" style="edgeStyle=orthogonalEdgeStyle;rounded=0;orthogonalLoop=1;jettySize=auto;html=1;entryX=0;entryY=0.5;entryDx=0;entryDy=0;entryPerimeter=0;" edge="1" parent="F8KtdpI1GHPBsjBE2DjE-30" source="I0qWXPTTr72CTAHtNLoR-54" target="I0qWXPTTr72CTAHtNLoR-55">
          <mxGeometry relative="1" as="geometry" />
        </mxCell>
        <mxCell id="I0qWXPTTr72CTAHtNLoR-54" value="Comparar la fecha de fallecimiento con la fecha de prestación" style="points=[[0.25,0,0],[0.5,0,0],[0.75,0,0],[1,0.25,0],[1,0.5,0],[1,0.75,0],[0.75,1,0],[0.5,1,0],[0.25,1,0],[0,0.75,0],[0,0.5,0],[0,0.25,0]];shape=mxgraph.bpmn.task;whiteSpace=wrap;rectStyle=rounded;size=10;html=1;container=1;expand=0;collapsible=0;taskMarker=service;fillColor=#fff2cc;strokeColor=#d6b656;" vertex="1" parent="F8KtdpI1GHPBsjBE2DjE-30">
          <mxGeometry x="1175" y="150" width="135" height="80" as="geometry" />
        </mxCell>
        <mxCell id="I0qWXPTTr72CTAHtNLoR-57" value="Si" style="edgeStyle=orthogonalEdgeStyle;rounded=0;orthogonalLoop=1;jettySize=auto;html=1;" edge="1" parent="F8KtdpI1GHPBsjBE2DjE-30" source="I0qWXPTTr72CTAHtNLoR-55" target="I0qWXPTTr72CTAHtNLoR-59">
          <mxGeometry relative="1" as="geometry">
            <mxPoint x="1465" y="190" as="targetPoint" />
          </mxGeometry>
        </mxCell>
        <mxCell id="I0qWXPTTr72CTAHtNLoR-58" value="No" style="edgeStyle=orthogonalEdgeStyle;rounded=0;orthogonalLoop=1;jettySize=auto;html=1;entryX=0.5;entryY=1;entryDx=0;entryDy=0;entryPerimeter=0;" edge="1" parent="F8KtdpI1GHPBsjBE2DjE-30" source="I0qWXPTTr72CTAHtNLoR-55" target="F8KtdpI1GHPBsjBE2DjE-32">
          <mxGeometry relative="1" as="geometry">
            <Array as="points">
              <mxPoint x="1370" y="140" />
              <mxPoint x="1243" y="140" />
            </Array>
          </mxGeometry>
        </mxCell>
        <mxCell id="I0qWXPTTr72CTAHtNLoR-55" value="Fecha de prestación&lt;br&gt;mayor a fecha de&lt;br&gt;fallecimiento o retiro ?" style="points=[[0.25,0.25,0],[0.5,0,0],[0.75,0.25,0],[1,0.5,0],[0.75,0.75,0],[0.5,1,0],[0.25,0.75,0],[0,0.5,0]];shape=mxgraph.bpmn.gateway2;html=1;verticalLabelPosition=bottom;labelBackgroundColor=#ffffff;verticalAlign=top;align=center;perimeter=rhombusPerimeter;outlineConnect=0;outline=none;symbol=none;fillColor=#d5e8d4;strokeColor=#82b366;" vertex="1" parent="F8KtdpI1GHPBsjBE2DjE-30">
          <mxGeometry x="1345" y="165" width="50" height="50" as="geometry" />
        </mxCell>
        <mxCell id="I0qWXPTTr72CTAHtNLoR-59" value="Realizar glosa de los servicios prestados posterior al fallecimiento o retiro" style="points=[[0.25,0,0],[0.5,0,0],[0.75,0,0],[1,0.25,0],[1,0.5,0],[1,0.75,0],[0.75,1,0],[0.5,1,0],[0.25,1,0],[0,0.75,0],[0,0.5,0],[0,0.25,0]];shape=mxgraph.bpmn.task;whiteSpace=wrap;rectStyle=rounded;size=10;html=1;container=1;expand=0;collapsible=0;taskMarker=service;fillColor=#fff2cc;strokeColor=#d6b656;" vertex="1" parent="F8KtdpI1GHPBsjBE2DjE-30">
          <mxGeometry x="1455" y="150" width="135" height="80" as="geometry" />
        </mxCell>
        <mxCell id="I0qWXPTTr72CTAHtNLoR-68" style="edgeStyle=orthogonalEdgeStyle;rounded=0;orthogonalLoop=1;jettySize=auto;html=1;entryX=0.5;entryY=0;entryDx=0;entryDy=0;entryPerimeter=0;" edge="1" parent="F8KtdpI1GHPBsjBE2DjE-30" source="I0qWXPTTr72CTAHtNLoR-61" target="I0qWXPTTr72CTAHtNLoR-67">
          <mxGeometry relative="1" as="geometry" />
        </mxCell>
        <mxCell id="I0qWXPTTr72CTAHtNLoR-61" value="Crear documento FS en estado ACTIVO por el valor total de la factura" style="points=[[0.25,0,0],[0.5,0,0],[0.75,0,0],[1,0.25,0],[1,0.5,0],[1,0.75,0],[0.75,1,0],[0.5,1,0],[0.25,1,0],[0,0.75,0],[0,0.5,0],[0,0.25,0]];shape=mxgraph.bpmn.task;whiteSpace=wrap;rectStyle=rounded;size=10;html=1;container=1;expand=0;collapsible=0;taskMarker=service;fillColor=#fff2cc;strokeColor=#d6b656;" vertex="1" parent="F8KtdpI1GHPBsjBE2DjE-30">
          <mxGeometry x="1725" y="85" width="135" height="80" as="geometry" />
        </mxCell>
        <mxCell id="I0qWXPTTr72CTAHtNLoR-64" style="edgeStyle=orthogonalEdgeStyle;rounded=0;orthogonalLoop=1;jettySize=auto;html=1;entryX=0;entryY=0.5;entryDx=0;entryDy=0;entryPerimeter=0;" edge="1" parent="F8KtdpI1GHPBsjBE2DjE-30" source="I0qWXPTTr72CTAHtNLoR-62" target="I0qWXPTTr72CTAHtNLoR-61">
          <mxGeometry relative="1" as="geometry">
            <mxPoint x="1705" y="110" as="targetPoint" />
          </mxGeometry>
        </mxCell>
        <mxCell id="I0qWXPTTr72CTAHtNLoR-66" style="edgeStyle=orthogonalEdgeStyle;rounded=0;orthogonalLoop=1;jettySize=auto;html=1;entryX=0;entryY=0.5;entryDx=0;entryDy=0;entryPerimeter=0;" edge="1" parent="F8KtdpI1GHPBsjBE2DjE-30" source="I0qWXPTTr72CTAHtNLoR-62" target="I0qWXPTTr72CTAHtNLoR-65">
          <mxGeometry relative="1" as="geometry" />
        </mxCell>
        <mxCell id="I0qWXPTTr72CTAHtNLoR-62" value="" style="points=[[0.25,0.25,0],[0.5,0,0],[0.75,0.25,0],[1,0.5,0],[0.75,0.75,0],[0.5,1,0],[0.25,0.75,0],[0,0.5,0]];shape=mxgraph.bpmn.gateway2;html=1;verticalLabelPosition=bottom;labelBackgroundColor=#ffffff;verticalAlign=top;align=center;perimeter=rhombusPerimeter;outlineConnect=0;outline=none;symbol=none;gwType=parallel;fillColor=#d5e8d4;strokeColor=#82b366;" vertex="1" parent="F8KtdpI1GHPBsjBE2DjE-30">
          <mxGeometry x="1625" y="165" width="50" height="50" as="geometry" />
        </mxCell>
        <mxCell id="I0qWXPTTr72CTAHtNLoR-63" value="" style="edgeStyle=orthogonalEdgeStyle;rounded=0;orthogonalLoop=1;jettySize=auto;html=1;" edge="1" parent="F8KtdpI1GHPBsjBE2DjE-30" source="I0qWXPTTr72CTAHtNLoR-59" target="I0qWXPTTr72CTAHtNLoR-62">
          <mxGeometry relative="1" as="geometry">
            <mxPoint x="1680" y="540" as="targetPoint" />
            <mxPoint x="1625" y="540" as="sourcePoint" />
          </mxGeometry>
        </mxCell>
        <mxCell id="I0qWXPTTr72CTAHtNLoR-69" style="edgeStyle=orthogonalEdgeStyle;rounded=0;orthogonalLoop=1;jettySize=auto;html=1;entryX=0.5;entryY=1;entryDx=0;entryDy=0;entryPerimeter=0;" edge="1" parent="F8KtdpI1GHPBsjBE2DjE-30" source="I0qWXPTTr72CTAHtNLoR-65" target="I0qWXPTTr72CTAHtNLoR-67">
          <mxGeometry relative="1" as="geometry" />
        </mxCell>
        <mxCell id="I0qWXPTTr72CTAHtNLoR-65" value="Crear documento FD en estado ACTIVO por el valor de la glosa" style="points=[[0.25,0,0],[0.5,0,0],[0.75,0,0],[1,0.25,0],[1,0.5,0],[1,0.75,0],[0.75,1,0],[0.5,1,0],[0.25,1,0],[0,0.75,0],[0,0.5,0],[0,0.25,0]];shape=mxgraph.bpmn.task;whiteSpace=wrap;rectStyle=rounded;size=10;html=1;container=1;expand=0;collapsible=0;taskMarker=service;fillColor=#fff2cc;strokeColor=#d6b656;" vertex="1" parent="F8KtdpI1GHPBsjBE2DjE-30">
          <mxGeometry x="1725" y="215" width="135" height="80" as="geometry" />
        </mxCell>
        <mxCell id="I0qWXPTTr72CTAHtNLoR-71" style="edgeStyle=orthogonalEdgeStyle;rounded=0;orthogonalLoop=1;jettySize=auto;html=1;" edge="1" parent="F8KtdpI1GHPBsjBE2DjE-30" source="I0qWXPTTr72CTAHtNLoR-67" target="I0qWXPTTr72CTAHtNLoR-70">
          <mxGeometry relative="1" as="geometry" />
        </mxCell>
        <mxCell id="I0qWXPTTr72CTAHtNLoR-67" value="" style="points=[[0.25,0.25,0],[0.5,0,0],[0.75,0.25,0],[1,0.5,0],[0.75,0.75,0],[0.5,1,0],[0.25,0.75,0],[0,0.5,0]];shape=mxgraph.bpmn.gateway2;html=1;verticalLabelPosition=bottom;labelBackgroundColor=#ffffff;verticalAlign=top;align=center;perimeter=rhombusPerimeter;outlineConnect=0;outline=end;symbol=general;fillColor=#d5e8d4;strokeColor=#82b366;" vertex="1" parent="F8KtdpI1GHPBsjBE2DjE-30">
          <mxGeometry x="1895" y="165" width="50" height="50" as="geometry" />
        </mxCell>
        <mxCell id="I0qWXPTTr72CTAHtNLoR-70" value="" style="points=[[0.145,0.145,0],[0.5,0,0],[0.855,0.145,0],[1,0.5,0],[0.855,0.855,0],[0.5,1,0],[0.145,0.855,0],[0,0.5,0]];shape=mxgraph.bpmn.event;html=1;verticalLabelPosition=bottom;labelBackgroundColor=#ffffff;verticalAlign=top;align=center;perimeter=ellipsePerimeter;outlineConnect=0;aspect=fixed;outline=end;symbol=terminate;fillColor=#f8cecc;strokeColor=#b85450;" vertex="1" parent="F8KtdpI1GHPBsjBE2DjE-30">
          <mxGeometry x="1985" y="165" width="50" height="50" as="geometry" />
        </mxCell>
        <mxCell id="I0qWXPTTr72CTAHtNLoR-1" value="&lt;font style=&quot;vertical-align: inherit;&quot;&gt;&lt;font style=&quot;vertical-align: inherit;&quot;&gt;Glosa de factura&lt;/font&gt;&lt;/font&gt;" style="swimlane;startSize=20;horizontal=0;html=1;" vertex="1" parent="F8KtdpI1GHPBsjBE2DjE-1">
          <mxGeometry y="660" width="2085" height="320" as="geometry" />
        </mxCell>
        <mxCell id="I0qWXPTTr72CTAHtNLoR-35" style="edgeStyle=orthogonalEdgeStyle;rounded=0;orthogonalLoop=1;jettySize=auto;html=1;" edge="1" parent="I0qWXPTTr72CTAHtNLoR-1" source="I0qWXPTTr72CTAHtNLoR-32" target="I0qWXPTTr72CTAHtNLoR-34">
          <mxGeometry relative="1" as="geometry" />
        </mxCell>
        <mxCell id="I0qWXPTTr72CTAHtNLoR-32" value="&lt;font style=&quot;vertical-align: inherit;&quot;&gt;&lt;font style=&quot;vertical-align: inherit;&quot;&gt;Cargar facturas en efac (documento FS)&lt;/font&gt;&lt;/font&gt;" style="points=[[0.25,0,0],[0.5,0,0],[0.75,0,0],[1,0.25,0],[1,0.5,0],[1,0.75,0],[0.75,1,0],[0.5,1,0],[0.25,1,0],[0,0.75,0],[0,0.5,0],[0,0.25,0]];shape=mxgraph.bpmn.task;whiteSpace=wrap;rectStyle=rounded;size=10;html=1;container=1;expand=0;collapsible=0;taskMarker=service;fillColor=#fff2cc;strokeColor=#d6b656;" vertex="1" parent="I0qWXPTTr72CTAHtNLoR-1">
          <mxGeometry x="885" y="90" width="135" height="80" as="geometry" />
        </mxCell>
        <mxCell id="I0qWXPTTr72CTAHtNLoR-38" style="edgeStyle=orthogonalEdgeStyle;rounded=0;orthogonalLoop=1;jettySize=auto;html=1;entryX=0;entryY=0.5;entryDx=0;entryDy=0;entryPerimeter=0;" edge="1" parent="I0qWXPTTr72CTAHtNLoR-1" source="I0qWXPTTr72CTAHtNLoR-34" target="I0qWXPTTr72CTAHtNLoR-36">
          <mxGeometry relative="1" as="geometry">
            <Array as="points">
              <mxPoint x="1090" y="65" />
            </Array>
          </mxGeometry>
        </mxCell>
        <mxCell id="I0qWXPTTr72CTAHtNLoR-39" style="edgeStyle=orthogonalEdgeStyle;rounded=0;orthogonalLoop=1;jettySize=auto;html=1;entryX=0;entryY=0.5;entryDx=0;entryDy=0;entryPerimeter=0;" edge="1" parent="I0qWXPTTr72CTAHtNLoR-1" source="I0qWXPTTr72CTAHtNLoR-34" target="I0qWXPTTr72CTAHtNLoR-37">
          <mxGeometry relative="1" as="geometry">
            <Array as="points">
              <mxPoint x="1090" y="220" />
            </Array>
          </mxGeometry>
        </mxCell>
        <mxCell id="I0qWXPTTr72CTAHtNLoR-34" value="" style="points=[[0.25,0.25,0],[0.5,0,0],[0.75,0.25,0],[1,0.5,0],[0.75,0.75,0],[0.5,1,0],[0.25,0.75,0],[0,0.5,0]];shape=mxgraph.bpmn.gateway2;html=1;verticalLabelPosition=bottom;labelBackgroundColor=#ffffff;verticalAlign=top;align=center;perimeter=rhombusPerimeter;outlineConnect=0;outline=none;symbol=none;gwType=parallel;fillColor=#d5e8d4;strokeColor=#82b366;" vertex="1" parent="I0qWXPTTr72CTAHtNLoR-1">
          <mxGeometry x="1065" y="105" width="50" height="50" as="geometry" />
        </mxCell>
        <mxCell id="I0qWXPTTr72CTAHtNLoR-43" style="edgeStyle=orthogonalEdgeStyle;rounded=0;orthogonalLoop=1;jettySize=auto;html=1;entryX=0.5;entryY=0;entryDx=0;entryDy=0;entryPerimeter=0;" edge="1" parent="I0qWXPTTr72CTAHtNLoR-1" source="I0qWXPTTr72CTAHtNLoR-36" target="I0qWXPTTr72CTAHtNLoR-42">
          <mxGeometry relative="1" as="geometry" />
        </mxCell>
        <mxCell id="I0qWXPTTr72CTAHtNLoR-36" value="&lt;font style=&quot;vertical-align: inherit;&quot;&gt;&lt;font style=&quot;vertical-align: inherit;&quot;&gt;Insertar mensaje en el campo observaciones&lt;/font&gt;&lt;/font&gt;" style="points=[[0.25,0,0],[0.5,0,0],[0.75,0,0],[1,0.25,0],[1,0.5,0],[1,0.75,0],[0.75,1,0],[0.5,1,0],[0.25,1,0],[0,0.75,0],[0,0.5,0],[0,0.25,0]];shape=mxgraph.bpmn.task;whiteSpace=wrap;rectStyle=rounded;size=10;html=1;container=1;expand=0;collapsible=0;taskMarker=service;fillColor=#fff2cc;strokeColor=#d6b656;" vertex="1" parent="I0qWXPTTr72CTAHtNLoR-1">
          <mxGeometry x="1145" y="25" width="135" height="80" as="geometry" />
        </mxCell>
        <mxCell id="I0qWXPTTr72CTAHtNLoR-41" style="edgeStyle=orthogonalEdgeStyle;rounded=0;orthogonalLoop=1;jettySize=auto;html=1;" edge="1" parent="I0qWXPTTr72CTAHtNLoR-1" source="I0qWXPTTr72CTAHtNLoR-37" target="I0qWXPTTr72CTAHtNLoR-40">
          <mxGeometry relative="1" as="geometry" />
        </mxCell>
        <mxCell id="I0qWXPTTr72CTAHtNLoR-37" value="&lt;font style=&quot;vertical-align: inherit;&quot;&gt;&lt;font style=&quot;vertical-align: inherit;&quot;&gt;Insertar en el campo estado de la FS &quot;DEVUELTO&quot;&lt;/font&gt;&lt;/font&gt;" style="points=[[0.25,0,0],[0.5,0,0],[0.75,0,0],[1,0.25,0],[1,0.5,0],[1,0.75,0],[0.75,1,0],[0.5,1,0],[0.25,1,0],[0,0.75,0],[0,0.5,0],[0,0.25,0]];shape=mxgraph.bpmn.task;whiteSpace=wrap;rectStyle=rounded;size=10;html=1;container=1;expand=0;collapsible=0;taskMarker=service;fillColor=#fff2cc;strokeColor=#d6b656;" vertex="1" parent="I0qWXPTTr72CTAHtNLoR-1">
          <mxGeometry x="1145" y="180" width="135" height="80" as="geometry" />
        </mxCell>
        <mxCell id="I0qWXPTTr72CTAHtNLoR-44" style="edgeStyle=orthogonalEdgeStyle;rounded=0;orthogonalLoop=1;jettySize=auto;html=1;" edge="1" parent="I0qWXPTTr72CTAHtNLoR-1" source="I0qWXPTTr72CTAHtNLoR-40" target="I0qWXPTTr72CTAHtNLoR-42">
          <mxGeometry relative="1" as="geometry" />
        </mxCell>
        <mxCell id="I0qWXPTTr72CTAHtNLoR-40" value="&lt;font style=&quot;vertical-align: inherit;&quot;&gt;&lt;font style=&quot;vertical-align: inherit;&quot;&gt;Colocar en status la opción B = &quot;USUARIO RETIRADO O MOROSO&quot;&lt;/font&gt;&lt;/font&gt;" style="points=[[0.25,0,0],[0.5,0,0],[0.75,0,0],[1,0.25,0],[1,0.5,0],[1,0.75,0],[0.75,1,0],[0.5,1,0],[0.25,1,0],[0,0.75,0],[0,0.5,0],[0,0.25,0]];shape=mxgraph.bpmn.task;whiteSpace=wrap;rectStyle=rounded;size=10;html=1;container=1;expand=0;collapsible=0;taskMarker=service;fillColor=#fff2cc;strokeColor=#d6b656;" vertex="1" parent="I0qWXPTTr72CTAHtNLoR-1">
          <mxGeometry x="1325" y="180" width="135" height="80" as="geometry" />
        </mxCell>
        <mxCell id="I0qWXPTTr72CTAHtNLoR-46" style="edgeStyle=orthogonalEdgeStyle;rounded=0;orthogonalLoop=1;jettySize=auto;html=1;" edge="1" parent="I0qWXPTTr72CTAHtNLoR-1" source="I0qWXPTTr72CTAHtNLoR-42" target="I0qWXPTTr72CTAHtNLoR-45">
          <mxGeometry relative="1" as="geometry" />
        </mxCell>
        <mxCell id="I0qWXPTTr72CTAHtNLoR-42" value="" style="points=[[0.25,0.25,0],[0.5,0,0],[0.75,0.25,0],[1,0.5,0],[0.75,0.75,0],[0.5,1,0],[0.25,0.75,0],[0,0.5,0]];shape=mxgraph.bpmn.gateway2;html=1;verticalLabelPosition=bottom;labelBackgroundColor=#ffffff;verticalAlign=top;align=center;perimeter=rhombusPerimeter;outlineConnect=0;outline=end;symbol=general;fillColor=#d5e8d4;strokeColor=#82b366;" vertex="1" parent="I0qWXPTTr72CTAHtNLoR-1">
          <mxGeometry x="1505" y="105" width="50" height="50" as="geometry" />
        </mxCell>
        <mxCell id="I0qWXPTTr72CTAHtNLoR-45" value="" style="points=[[0.145,0.145,0],[0.5,0,0],[0.855,0.145,0],[1,0.5,0],[0.855,0.855,0],[0.5,1,0],[0.145,0.855,0],[0,0.5,0]];shape=mxgraph.bpmn.event;html=1;verticalLabelPosition=bottom;labelBackgroundColor=#ffffff;verticalAlign=top;align=center;perimeter=ellipsePerimeter;outlineConnect=0;aspect=fixed;outline=end;symbol=terminate;fillColor=#f8cecc;strokeColor=#b85450;" vertex="1" parent="I0qWXPTTr72CTAHtNLoR-1">
          <mxGeometry x="1595" y="105" width="50" height="50" as="geometry" />
        </mxCell>
        <mxCell id="I0qWXPTTr72CTAHtNLoR-30" value="No" style="edgeStyle=orthogonalEdgeStyle;rounded=0;orthogonalLoop=1;jettySize=auto;html=1;" edge="1" parent="F8KtdpI1GHPBsjBE2DjE-1" source="I0qWXPTTr72CTAHtNLoR-29" target="I0qWXPTTr72CTAHtNLoR-33">
          <mxGeometry relative="1" as="geometry">
            <mxPoint x="935" y="450" as="targetPoint" />
          </mxGeometry>
        </mxCell>
      </root>
    </mxGraphModel>
  </diagram>
</mxfile>
